<svg xmlns="http://www.w3.org/2000/svg" xmlns:xlink="http://www.w3.org/1999/xlink" width="1600" zoomAndPan="magnify" viewBox="0 0 1200 1199.999942" height="1600" preserveAspectRatio="xMidYMid meet" version="1.0"><defs><clipPath id="87be0b7495"><path d="M 420 185.097656 L 780 185.097656 L 780 545.097656 L 420 545.097656 Z M 420 185.097656 " clip-rule="nonzero"/></clipPath><clipPath id="d6d2ced390"><path d="M 600 185.097656 C 500.589844 185.097656 420 265.6875 420 365.097656 C 420 464.507812 500.589844 545.097656 600 545.097656 C 699.410156 545.097656 780 464.507812 780 365.097656 C 780 265.6875 699.410156 185.097656 600 185.097656 Z M 600 185.097656 " clip-rule="nonzero"/></clipPath><clipPath id="154fda23b4"><path d="M 420 600 L 780 600 L 780 960 L 420 960 Z M 420 600 " clip-rule="nonzero"/></clipPath><clipPath id="dc194bf458"><path d="M 476.25 600 L 723.75 600 C 754.816406 600 780 625.183594 780 656.25 L 780 903.75 C 780 934.816406 754.816406 960 723.75 960 L 476.25 960 C 445.183594 960 420 934.816406 420 903.75 L 420 656.25 C 420 625.183594 445.183594 600 476.25 600 Z M 476.25 600 " clip-rule="nonzero"/></clipPath><clipPath id="71c3d269b5"><path d="M 478.398438 916.671875 L 567.128906 916.671875 L 567.128906 1200 L 478.398438 1200 Z M 478.398438 916.671875 " clip-rule="nonzero"/></clipPath><clipPath id="220665c0f2"><path d="M 522.761719 916.671875 C 534.527344 916.671875 545.8125 921.347656 554.132812 929.664062 C 562.453125 937.984375 567.128906 949.269531 567.128906 961.035156 L 567.128906 1232.308594 C 567.128906 1244.074219 562.453125 1255.359375 554.132812 1263.679688 C 545.8125 1271.996094 534.527344 1276.671875 522.761719 1276.671875 C 510.996094 1276.671875 499.710938 1271.996094 491.394531 1263.679688 C 483.074219 1255.359375 478.398438 1244.074219 478.398438 1232.308594 L 478.398438 961.035156 C 478.398438 949.269531 483.074219 937.984375 491.394531 929.664062 C 499.710938 921.347656 510.996094 916.671875 522.761719 916.671875 Z M 522.761719 916.671875 " clip-rule="nonzero"/></clipPath><clipPath id="34a2e0e7f5"><path d="M 654.292969 916.671875 L 743.019531 916.671875 L 743.019531 1200 L 654.292969 1200 Z M 654.292969 916.671875 " clip-rule="nonzero"/></clipPath><clipPath id="7f55d182a4"><path d="M 698.65625 916.671875 C 710.421875 916.671875 721.707031 921.347656 730.027344 929.664062 C 738.347656 937.984375 743.019531 949.269531 743.019531 961.035156 L 743.019531 1232.308594 C 743.019531 1244.074219 738.347656 1255.359375 730.027344 1263.679688 C 721.707031 1271.996094 710.421875 1276.671875 698.65625 1276.671875 C 686.890625 1276.671875 675.605469 1271.996094 667.285156 1263.679688 C 658.964844 1255.359375 654.292969 1244.074219 654.292969 1232.308594 L 654.292969 961.035156 C 654.292969 949.269531 658.964844 937.984375 667.285156 929.664062 C 675.605469 921.347656 686.890625 916.671875 698.65625 916.671875 Z M 698.65625 916.671875 " clip-rule="nonzero"/></clipPath><clipPath id="da5e921dff"><path d="M 714 340 L 934 340 L 934 668 L 714 668 Z M 714 340 " clip-rule="nonzero"/></clipPath><clipPath id="30763cb5fd"><path d="M 871.445312 324.488281 L 949.285156 367.074219 L 776.441406 682.996094 L 698.601562 640.410156 Z M 871.445312 324.488281 " clip-rule="nonzero"/></clipPath><clipPath id="f14ff6dd11"><path d="M 910.367188 345.78125 C 920.6875 351.429688 928.34375 360.945312 931.652344 372.238281 C 934.957031 383.53125 933.640625 395.671875 927.992188 405.996094 L 797.789062 643.976562 C 792.140625 654.300781 782.625 661.957031 771.332031 665.261719 C 760.039062 668.566406 747.898438 667.25 737.574219 661.601562 C 727.253906 655.957031 719.597656 646.4375 716.292969 635.148438 C 712.988281 623.855469 714.300781 611.710938 719.949219 601.390625 L 850.152344 363.410156 C 855.800781 353.085938 865.316406 345.429688 876.609375 342.125 C 887.902344 338.820312 900.042969 340.132812 910.367188 345.78125 Z M 910.367188 345.78125 " clip-rule="nonzero"/></clipPath><clipPath id="6049d2b9be"><path d="M 282 368 L 550 368 L 550 722 L 282 722 Z M 282 368 " clip-rule="nonzero"/></clipPath><clipPath id="64b13853dc"><path d="M 265.636719 400.910156 L 339.203125 351.300781 L 567.289062 689.519531 L 493.726562 739.128906 Z M 265.636719 400.910156 " clip-rule="nonzero"/></clipPath><clipPath id="6b58e30e93"><path d="M 302.421875 376.105469 C 312.175781 369.523438 324.144531 367.089844 335.695312 369.335938 C 347.242188 371.582031 357.429688 378.324219 364.007812 388.082031 L 542.324219 652.5 C 548.902344 662.257812 551.335938 674.226562 549.089844 685.773438 C 546.84375 697.324219 540.101562 707.507812 530.347656 714.085938 C 520.59375 720.667969 508.621094 723.101562 497.074219 720.855469 C 485.523438 718.609375 475.339844 711.867188 468.761719 702.109375 L 290.441406 437.691406 C 283.863281 427.933594 281.429688 415.964844 283.675781 404.417969 C 285.921875 392.867188 292.664062 382.683594 302.421875 376.105469 Z M 302.421875 376.105469 " clip-rule="nonzero"/></clipPath><clipPath id="847dc47bdd"><path d="M 420 532.390625 L 780 532.390625 L 780 892.390625 L 420 892.390625 Z M 420 532.390625 " clip-rule="nonzero"/></clipPath><clipPath id="ee49677a5f"><path d="M 600 532.390625 C 500.589844 532.390625 420 612.980469 420 712.390625 C 420 811.804688 500.589844 892.390625 600 892.390625 C 699.410156 892.390625 780 811.804688 780 712.390625 C 780 612.980469 699.410156 532.390625 600 532.390625 Z M 600 532.390625 " clip-rule="nonzero"/></clipPath></defs><rect x="-120" width="1440" fill="#ffffff" y="-119.999994" height="1439.999931" fill-opacity="1"/><rect x="-120" width="1440" fill="#ffffff" y="-119.999994" height="1439.999931" fill-opacity="1"/><g clip-path="url(#87be0b7495)"><g clip-path="url(#d6d2ced390)"><path fill="#000000" d="M 420 185.097656 L 780 185.097656 L 780 545.097656 L 420 545.097656 Z M 420 185.097656 " fill-opacity="1" fill-rule="nonzero"/></g></g><g clip-path="url(#154fda23b4)"><g clip-path="url(#dc194bf458)"><path fill="#000000" d="M 420 600 L 780 600 L 780 960 L 420 960 Z M 420 600 " fill-opacity="1" fill-rule="nonzero"/></g></g><g clip-path="url(#71c3d269b5)"><g clip-path="url(#220665c0f2)"><path fill="#000000" d="M 478.398438 916.671875 L 567.128906 916.671875 L 567.128906 1276.785156 L 478.398438 1276.785156 Z M 478.398438 916.671875 " fill-opacity="1" fill-rule="nonzero"/></g></g><g clip-path="url(#34a2e0e7f5)"><g clip-path="url(#7f55d182a4)"><path fill="#000000" d="M 654.292969 916.671875 L 743.019531 916.671875 L 743.019531 1276.785156 L 654.292969 1276.785156 Z M 654.292969 916.671875 " fill-opacity="1" fill-rule="nonzero"/></g></g><g clip-path="url(#da5e921dff)"><g clip-path="url(#30763cb5fd)"><g clip-path="url(#f14ff6dd11)"><path fill="#000000" d="M 871.445312 324.488281 L 949.285156 367.074219 L 776.441406 682.996094 L 698.601562 640.410156 Z M 871.445312 324.488281 " fill-opacity="1" fill-rule="nonzero"/></g></g></g><g clip-path="url(#6049d2b9be)"><g clip-path="url(#64b13853dc)"><g clip-path="url(#6b58e30e93)"><path fill="#000000" d="M 265.636719 400.910156 L 339.203125 351.300781 L 567.09375 689.234375 L 493.53125 738.84375 Z M 265.636719 400.910156 " fill-opacity="1" fill-rule="nonzero"/></g></g></g><g clip-path="url(#847dc47bdd)"><g clip-path="url(#ee49677a5f)"><path fill="#000000" d="M 420 532.390625 L 780 532.390625 L 780 892.390625 L 420 892.390625 Z M 420 532.390625 " fill-opacity="1" fill-rule="nonzero"/></g></g></svg>